<svg xmlns="http://www.w3.org/2000/svg" viewBox="135 190 1340 650"><path fill="#141612" fill-rule="evenodd" d="M 514 229 C 514 230,508 231,502 231 C 496 231,491 232,490 232 C 489 233,485 234,479 234 C 474 234,469 235,469 236 C 469 236,463 237,457 237 C 451 237,445 238,445 239 C 445 239,439 240,433 240 C 427 240,421 241,421 242 C 421 242,418 243,415 243 C 410 243,409 243,407 246 C 405 248,404 248,403 248 C 403 247,400 246,399 246 C 397 246,395 245,394 245 C 393 244,391 243,390 243 C 388 243,386 242,385 242 C 384 241,383 240,381 240 C 379 240,378 239,378 238 C 378 238,377 237,376 237 C 376 237,372 236,369 234 C 363 231,358 231,357 233 C 356 234,355 235,354 235 C 353 235,342 245,343 246 C 344 246,297 293,293 295 C 292 296,290 297,289 297 C 288 297,288 298,288 299 C 288 299,286 300,285 301 C 282 302,279 304,278 305 C 278 306,274 308,271 309 C 270 309,270 310,270 311 C 270 311,269 312,268 312 C 267 312,261 315,260 317 C 260 317,259 318,257 318 C 256 318,255 319,255 320 C 255 320,252 321,250 323 C 248 324,246 325,246 326 C 246 326,244 327,243 327 C 241 327,240 328,240 328 C 239 329,236 331,227 336 C 222 338,219 340,219 341 C 219 341,217 342,216 342 C 214 342,213 343,213 344 C 213 344,211 345,210 345 C 208 345,207 346,207 347 C 207 347,205 348,203 348 C 202 348,198 350,195 352 C 192 353,189 355,188 355 C 186 355,186 355,186 355 C 186 356,184 357,182 357 C 180 357,179 358,178 359 C 177 359,175 360,174 360 C 172 360,169 361,169 362 C 168 362,164 363,160 363 C 156 364,153 364,153 365 C 153 365,152 366,151 366 C 150 366,150 365,150 365 C 150 364,148 364,147 364 L 144 364 144 375 C 144 382,144 388,144 388 C 145 388,145 390,145 391 C 145 393,145 395,146 395 C 146 395,147 397,147 399 C 147 400,147 402,148 402 C 148 402,148 403,148 404 C 148 404,148 406,148 407 C 150 410,151 413,151 414 C 151 414,151 415,151 415 C 152 415,154 418,154 420 C 154 420,154 421,154 421 C 155 421,156 423,156 425 C 156 425,157 426,158 427 C 158 428,160 430,162 432 C 167 440,176 448,181 450 C 182 450,183 451,183 452 C 183 452,184 453,185 453 C 187 453,188 454,189 455 C 189 455,191 456,193 456 C 195 457,197 457,198 458 C 198 459,259 459,260 458 C 261 457,263 457,265 456 C 267 456,269 455,269 455 C 270 454,271 453,273 453 C 274 453,276 452,276 451 C 276 451,276 451,277 451 C 278 451,294 435,294 434 C 294 433,294 433,294 433 C 295 434,295 436,294 437 C 293 438,293 468,294 469 C 294 469,295 479,295 490 C 295 503,295 512,296 512 C 296 512,297 523,297 538 C 297 552,297 564,297 564 C 298 563,298 575,298 589 C 298 605,298 615,299 615 C 299 615,300 624,300 636 C 300 647,300 657,300 656 C 301 656,301 660,301 665 C 301 669,301 673,301 674 C 302 675,303 678,304 681 C 308 687,317 699,319 699 C 320 699,321 700,323 702 C 325 703,326 705,327 705 C 328 705,329 705,330 707 C 333 709,345 709,343 706 C 343 705,343 705,343 705 C 344 705,346 701,346 699 C 346 698,348 694,350 689 C 353 684,355 679,355 679 C 355 678,355 678,355 678 C 356 678,358 674,358 672 C 358 672,358 672,359 672 C 359 672,360 670,360 669 C 360 668,360 666,360 666 C 361 666,361 665,361 664 C 361 662,361 661,362 661 C 362 661,363 659,363 658 C 363 656,363 654,363 654 C 365 653,365 537,363 537 C 363 537,363 527,363 512 C 363 498,362 487,362 486 C 362 486,361 478,361 469 C 361 459,361 451,360 451 C 360 451,360 445,360 438 C 360 431,359 426,359 425 C 359 425,358 422,358 418 C 358 414,358 411,357 411 C 357 411,357 408,357 405 C 357 401,356 399,356 398 C 355 398,355 364,356 364 C 356 363,357 362,357 360 C 357 358,357 356,358 356 C 358 356,358 354,358 353 C 358 352,358 351,359 351 C 359 351,360 349,360 348 C 360 347,360 346,361 346 C 361 346,361 345,361 345 C 361 343,363 340,364 340 C 364 340,364 339,364 339 C 364 337,366 334,368 332 C 370 331,370 330,370 330 C 370 330,374 324,380 318 C 387 312,391 306,391 306 C 391 305,392 304,393 302 C 394 301,396 300,396 299 C 396 298,396 298,396 298 C 398 298,403 286,403 285 C 403 284,403 283,403 283 C 405 282,405 276,404 275 C 403 274,403 264,404 261 C 405 258,409 258,409 260 C 409 261,409 262,409 262 C 411 262,412 266,412 276 C 412 281,412 286,413 286 C 413 286,414 286,414 287 C 414 290,420 295,424 295 C 426 295,428 295,428 296 C 429 297,438 297,439 296 C 439 295,444 294,450 294 C 457 294,462 293,462 293 C 462 292,468 291,474 291 C 481 291,487 290,487 289 C 487 289,489 289,492 289 C 496 289,498 291,496 293 C 495 293,495 295,495 297 C 495 298,494 300,494 300 C 493 300,493 301,493 303 C 493 304,493 305,492 305 C 492 305,492 307,492 309 C 492 311,491 313,490 313 C 490 313,490 314,490 315 C 490 318,485 326,482 327 C 481 327,480 328,480 329 C 480 329,477 330,475 330 C 473 330,471 331,471 332 C 471 332,468 333,466 333 C 463 333,460 334,460 335 C 459 335,455 336,451 336 C 447 337,444 337,444 338 C 444 338,437 339,429 339 C 420 339,414 338,414 338 C 414 337,410 336,406 336 C 401 336,397 335,397 334 C 395 332,387 338,388 341 C 388 342,388 343,388 343 C 387 343,387 345,387 348 C 387 352,386 355,386 355 C 385 355,385 358,385 361 C 385 364,385 367,386 367 C 386 367,387 368,387 369 C 387 372,389 376,391 376 C 392 376,393 376,393 376 C 393 377,395 378,398 378 C 400 378,403 379,403 380 C 403 380,420 381,440 381 C 470 381,477 381,476 382 C 475 382,475 384,475 386 C 475 387,475 389,474 389 C 474 389,474 391,474 393 C 474 395,473 397,473 397 C 472 397,472 399,472 401 C 472 402,472 404,471 404 C 471 404,471 406,471 408 C 471 409,470 411,469 411 C 469 411,469 412,469 412 C 469 413,466 419,464 420 C 463 421,462 421,462 422 C 461 422,458 423,455 423 C 452 423,450 424,450 425 C 450 425,446 426,442 426 C 438 426,435 427,435 428 C 435 428,431 429,427 429 C 423 429,420 430,420 431 C 420 431,416 432,412 432 C 407 432,404 433,403 433 C 402 434,400 434,398 435 C 394 435,391 438,389 441 C 388 443,388 450,388 451 C 390 451,396 464,396 465 C 396 466,396 468,397 469 C 398 471,399 473,399 474 C 401 478,405 483,406 483 C 407 483,408 483,408 484 C 409 485,412 486,414 486 C 417 486,420 487,421 488 C 422 488,429 489,435 489 L 448 489 448 494 C 448 497,447 500,447 500 C 447 501,447 504,447 507 C 447 511,446 514,446 514 C 445 514,445 517,445 521 C 445 525,444 528,444 528 C 444 529,444 534,444 540 C 444 546,443 552,443 552 C 442 552,442 553,442 554 C 442 555,442 557,443 557 C 443 557,444 560,444 562 C 444 565,444 567,445 567 C 445 567,446 567,445 568 C 445 568,446 570,447 572 C 448 574,449 576,449 577 C 450 577,451 579,452 580 C 453 581,456 583,458 584 C 459 586,462 587,463 588 C 464 588,465 589,465 589 C 465 590,465 591,466 591 C 468 591,473 587,473 586 C 473 586,474 586,475 586 C 476 586,481 581,490 573 C 494 569,499 565,504 563 C 508 561,512 559,513 558 C 516 554,520 545,520 541 C 520 539,520 537,521 537 C 521 536,522 533,522 529 C 522 525,522 521,522 521 C 523 521,523 518,523 516 C 523 514,523 511,524 511 C 524 510,525 508,525 505 C 525 503,525 500,525 500 C 526 500,526 498,526 496 C 526 495,526 493,527 493 C 527 493,528 492,528 491 C 528 488,533 484,536 483 C 538 483,540 482,540 481 C 540 480,594 480,595 482 C 596 483,597 483,598 482 C 598 481,601 481,603 481 C 610 481,618 475,625 465 C 626 464,629 460,631 458 C 634 455,636 453,636 452 C 636 452,637 450,639 448 C 649 437,651 434,648 432 C 648 431,648 430,648 429 C 648 428,647 426,646 426 C 645 426,645 425,645 424 C 645 423,644 423,643 423 C 643 423,642 422,641 421 C 640 420,638 420,637 420 C 636 420,636 419,636 419 C 636 418,633 417,631 417 C 628 417,626 416,625 416 C 624 415,621 414,618 414 C 614 414,611 413,610 412 C 610 412,608 412,607 412 C 606 412,606 411,606 410 C 606 409,606 409,607 409 C 607 409,608 407,609 406 C 610 403,612 400,613 399 C 614 399,615 398,615 397 C 615 395,621 389,626 386 C 629 385,632 384,647 384 C 656 383,663 383,664 383 C 665 382,667 381,670 381 C 672 381,675 380,675 379 C 675 379,675 379,676 379 C 679 379,687 375,687 374 C 687 373,687 372,688 372 C 690 371,694 369,696 368 C 702 363,708 357,708 356 C 708 355,697 346,695 345 C 694 345,693 344,693 343 C 693 343,691 342,690 342 C 688 342,687 341,687 341 C 687 340,684 339,682 339 C 680 339,678 338,678 338 C 678 337,675 336,671 336 C 668 336,665 335,664 335 C 663 334,660 333,657 333 C 653 333,651 332,651 332 C 651 331,648 330,646 330 L 642 329 642 323 C 642 320,642 317,642 317 C 643 317,643 314,643 312 C 643 309,643 307,644 307 C 644 307,645 304,645 302 C 645 299,645 296,645 296 C 646 296,646 293,646 291 C 646 288,646 286,647 286 C 647 286,648 283,648 281 C 648 278,648 275,648 275 C 649 275,649 272,649 270 C 649 267,649 265,650 265 C 651 264,651 262,649 261 C 646 260,643 258,639 255 C 637 253,634 252,634 252 C 633 252,632 250,631 249 C 630 248,628 246,627 246 C 622 243,611 238,608 237 C 606 237,605 236,604 235 C 603 235,600 234,597 234 C 594 234,591 233,590 232 C 589 232,585 231,579 231 C 574 231,569 230,569 229 C 568 228,515 228,514 229 M 1106 246 C 1099 246,1093 247,1092 247 C 1091 248,1085 249,1077 249 C 1069 249,1062 250,1062 250 C 1062 251,1056 252,1049 252 C 1042 252,1036 253,1035 253 C 1034 254,1031 254,1028 255 C 1024 255,1022 256,1019 258 C 1017 259,1015 261,1015 261 C 1014 261,1012 262,1011 264 C 1009 266,1007 268,1006 268 C 1005 268,1005 268,1005 269 C 1005 269,1004 270,1003 270 C 1001 270,999 275,1001 278 C 1002 279,1003 280,1004 280 C 1006 280,1014 288,1014 290 C 1014 291,1014 292,1014 292 C 1015 292,1015 294,1015 295 C 1015 298,1014 299,1013 303 C 1012 304,1012 305,1012 306 C 1012 307,1011 308,1010 310 C 1010 312,1009 314,1009 315 C 1009 316,1009 317,1008 317 C 1008 317,1008 320,1008 322 C 1008 324,1007 327,1007 327 C 1006 327,1006 329,1006 331 C 1006 332,1006 334,1005 334 C 1005 334,1005 335,1005 338 C 1005 340,1004 343,1004 343 C 1003 343,1003 345,1003 348 C 1003 350,1003 352,1002 352 C 1002 352,1002 353,1002 356 C 1002 358,1001 361,1001 361 C 1000 361,1000 363,1000 366 C 1000 368,1000 370,999 370 C 999 370,999 371,999 374 C 999 376,998 379,998 379 C 997 379,997 381,997 384 C 997 386,997 388,996 388 C 996 388,996 389,996 392 C 996 394,995 397,995 397 C 994 397,994 399,994 401 C 994 403,994 405,993 405 C 993 405,993 408,993 411 C 993 414,992 417,992 417 C 991 417,991 419,991 421 C 991 423,991 425,990 425 C 990 425,990 428,990 431 C 990 433,989 436,989 436 C 988 436,988 439,988 443 C 988 446,988 449,987 449 C 987 450,987 454,987 459 C 987 464,986 469,986 469 C 984 470,984 516,985 518 C 990 527,991 529,996 532 C 1000 535,1015 535,1019 532 C 1020 531,1023 531,1025 531 C 1027 531,1029 530,1029 530 C 1029 529,1030 528,1032 528 C 1033 528,1035 527,1035 526 C 1035 526,1035 526,1035 526 C 1037 526,1043 521,1045 518 C 1050 511,1052 507,1051 506 C 1051 505,1051 504,1052 504 C 1052 504,1053 501,1053 499 C 1053 497,1053 494,1053 494 C 1054 494,1054 492,1054 490 C 1054 486,1054 486,1066 492 C 1076 497,1078 498,1086 498 C 1091 499,1096 499,1096 500 C 1096 500,1102 501,1109 501 C 1125 501,1127 501,1127 508 C 1127 511,1127 513,1127 513 C 1126 513,1126 513,1126 514 C 1126 516,1125 516,1113 516 C 1106 516,1100 517,1099 517 C 1098 518,1095 519,1092 519 C 1088 519,1086 520,1086 521 C 1086 521,1084 522,1083 522 C 1082 522,1079 523,1076 525 C 1073 526,1070 528,1069 528 C 1065 530,1065 530,1077 541 C 1080 543,1083 545,1084 546 C 1085 546,1086 547,1086 547 C 1086 548,1086 549,1088 549 C 1089 549,1091 549,1093 551 C 1095 552,1098 553,1099 553 C 1100 553,1101 553,1101 553 C 1101 554,1102 555,1104 555 C 1106 555,1107 556,1108 557 C 1109 557,1110 558,1112 558 C 1114 558,1116 559,1116 559 C 1116 560,1118 561,1120 561 C 1122 561,1125 562,1125 562 C 1125 563,1127 564,1129 564 C 1132 564,1135 565,1135 565 C 1135 566,1138 567,1142 567 C 1146 567,1149 568,1149 569 C 1149 569,1152 570,1157 570 C 1162 570,1167 571,1168 572 C 1170 573,1203 573,1203 572 C 1203 571,1207 570,1212 570 C 1217 570,1222 569,1222 569 C 1222 568,1225 567,1229 567 C 1233 567,1236 566,1236 566 C 1236 565,1237 565,1239 564 C 1245 563,1260 556,1264 552 C 1265 551,1267 550,1267 550 C 1267 550,1270 547,1273 545 C 1276 542,1279 540,1279 540 C 1282 540,1280 537,1276 533 C 1274 530,1272 527,1272 527 C 1272 526,1271 525,1270 525 C 1269 524,1266 523,1265 521 C 1263 520,1260 518,1260 517 C 1259 517,1256 516,1253 516 C 1250 515,1248 515,1248 514 C 1248 514,1245 514,1242 514 C 1238 514,1236 514,1236 514 C 1236 515,1227 516,1216 516 C 1205 516,1196 517,1195 517 C 1194 518,1189 519,1183 519 L 1173 519 1173 517 C 1173 515,1172 513,1172 513 C 1171 512,1171 508,1172 506 C 1174 504,1174 504,1187 504 C 1194 504,1200 503,1200 503 C 1200 502,1204 502,1209 501 C 1214 501,1218 500,1219 500 C 1220 499,1222 498,1225 498 C 1228 498,1230 497,1231 496 C 1232 496,1233 495,1235 495 C 1237 495,1240 494,1241 493 C 1243 492,1245 492,1245 492 C 1248 491,1254 484,1254 480 C 1254 479,1254 477,1254 477 C 1256 476,1256 461,1254 460 C 1254 460,1254 457,1254 455 C 1254 453,1253 450,1252 450 C 1252 450,1252 449,1252 448 C 1252 448,1252 446,1252 445 C 1250 442,1249 439,1249 438 C 1249 437,1249 436,1248 435 C 1246 431,1246 430,1246 428 C 1246 427,1246 426,1245 426 C 1245 426,1245 424,1245 423 C 1245 422,1244 420,1244 420 C 1243 420,1243 419,1243 418 C 1243 417,1243 415,1243 415 C 1242 415,1242 413,1242 412 C 1242 410,1241 408,1240 408 C 1240 408,1240 407,1240 407 C 1240 406,1240 405,1240 405 C 1239 405,1239 404,1239 402 C 1239 398,1228 384,1225 384 C 1225 384,1224 383,1223 382 C 1220 380,1222 378,1229 378 C 1232 378,1236 377,1237 376 C 1238 376,1244 375,1251 375 C 1257 375,1263 374,1264 374 C 1264 373,1267 372,1269 372 C 1271 372,1273 371,1274 370 C 1274 369,1275 369,1276 369 C 1277 369,1281 365,1280 364 C 1278 362,1274 361,1272 360 C 1270 360,1269 359,1269 359 C 1269 358,1266 357,1264 357 C 1262 357,1260 356,1260 356 C 1260 355,1257 354,1253 354 C 1250 354,1246 353,1246 352 C 1245 351,1235 351,1215 351 C 1199 351,1187 351,1188 351 C 1189 350,1190 350,1191 350 C 1192 349,1194 348,1196 348 C 1199 348,1201 347,1201 347 C 1201 346,1204 345,1207 345 C 1210 345,1213 344,1213 343 C 1213 343,1216 342,1219 342 C 1221 342,1224 341,1224 340 C 1224 340,1224 340,1225 340 C 1226 340,1227 339,1227 338 C 1227 335,1230 331,1233 330 C 1235 330,1236 329,1237 329 C 1238 328,1239 327,1241 327 C 1243 327,1245 326,1245 325 C 1245 325,1245 325,1246 325 C 1247 325,1254 318,1254 317 C 1254 316,1254 316,1255 316 C 1255 316,1256 314,1257 313 C 1258 310,1260 307,1261 306 C 1261 306,1262 306,1262 305 C 1262 303,1263 301,1264 301 C 1264 301,1264 300,1264 299 C 1264 298,1264 297,1265 297 C 1266 296,1266 280,1263 276 C 1259 268,1241 255,1234 255 C 1234 255,1232 254,1232 253 C 1231 253,1228 252,1224 252 C 1221 251,1218 251,1217 250 C 1216 250,1209 249,1202 249 C 1194 249,1187 248,1186 247 C 1185 247,1125 246,1106 246 M 840 278 C 840 282,839 285,839 285 C 838 285,838 288,838 290 C 838 292,838 295,837 295 C 837 295,837 296,837 298 C 837 304,834 305,815 306 C 798 306,798 306,798 298 C 798 296,797 295,797 295 C 796 295,796 293,796 292 C 797 283,781 278,776 285 C 775 287,774 289,774 290 C 774 291,773 292,773 292 C 772 292,772 295,772 298 C 772 301,772 304,771 304 C 771 304,771 305,771 307 L 771 311 761 312 C 756 312,752 313,751 313 C 750 314,747 314,744 315 C 724 316,737 341,759 342 C 763 343,767 343,768 343 C 768 344,769 345,770 345 C 771 346,772 347,772 347 C 772 348,772 349,773 349 C 773 349,774 350,774 351 C 774 354,782 364,784 364 C 785 364,786 364,786 365 C 787 369,802 364,803 359 C 803 356,804 355,805 355 C 805 355,805 354,805 354 C 805 353,805 352,806 351 C 808 347,808 346,808 345 C 809 340,809 340,820 340 C 831 340,835 342,835 348 C 835 349,836 350,837 351 C 838 353,838 354,838 354 C 838 354,838 354,838 355 C 840 356,847 354,848 352 C 848 351,849 351,850 351 C 852 351,852 360,851 361 C 850 361,850 365,850 369 C 850 373,849 377,849 377 C 849 378,849 381,849 384 C 849 391,847 394,844 391 C 843 390,843 388,843 387 C 843 386,842 385,842 385 C 841 385,841 382,841 380 C 841 378,841 375,840 375 C 840 375,840 373,840 372 C 840 367,837 365,829 366 L 823 366 823 369 C 823 371,823 373,824 373 C 824 373,825 378,825 384 C 825 394,824 396,823 396 C 822 396,822 395,822 395 C 822 394,819 393,816 393 C 812 393,810 392,810 391 C 810 391,808 391,807 391 C 805 391,804 390,804 389 C 804 388,803 388,802 388 C 802 388,802 387,802 386 C 802 383,796 375,793 375 C 792 375,792 374,792 374 C 792 371,781 372,778 375 C 777 376,775 378,773 378 C 771 378,770 379,769 380 C 767 381,729 381,729 380 C 729 379,727 379,726 379 C 725 379,723 378,722 377 C 717 374,715 374,714 378 C 714 380,713 383,713 384 C 712 384,712 386,712 388 C 712 389,712 391,711 391 C 711 391,711 392,711 394 C 711 397,710 399,710 399 C 709 399,709 401,709 402 C 709 403,709 405,708 405 C 708 405,708 408,708 410 C 708 412,707 415,707 415 C 706 415,706 418,706 422 C 706 426,705 429,705 429 C 705 430,705 434,705 438 C 705 443,704 447,704 447 C 703 447,703 450,703 453 C 703 455,703 458,702 458 C 702 459,702 461,702 463 C 702 465,701 468,701 468 C 700 468,700 470,700 471 C 700 472,700 474,699 474 C 699 474,699 476,699 478 C 699 479,698 481,697 481 C 697 481,697 482,697 483 C 697 485,695 489,694 489 C 694 489,694 489,694 490 C 694 490,693 493,692 495 C 691 497,690 500,690 501 C 690 502,689 504,688 505 C 683 515,681 521,681 523 C 681 524,680 525,680 525 C 679 525,679 525,679 525 C 679 527,677 531,676 531 C 676 531,676 531,676 531 C 676 533,674 537,673 537 C 673 537,672 537,673 538 C 673 538,672 540,671 542 C 670 544,669 546,669 547 C 669 548,668 549,667 549 C 667 549,667 549,667 549 C 667 550,666 553,665 556 C 663 558,663 572,665 573 C 665 573,666 574,666 576 C 666 579,672 585,677 585 C 679 585,681 584,681 584 C 681 583,681 583,682 583 C 688 583,711 561,711 557 C 711 556,711 555,712 555 C 715 553,732 522,733 516 C 733 515,734 514,735 512 C 735 510,736 509,736 509 C 736 508,737 506,738 504 C 739 501,741 498,741 497 C 742 490,750 486,760 486 C 766 486,766 484,766 511 C 766 536,766 538,771 541 C 774 543,783 543,784 542 C 784 541,786 540,788 540 C 790 540,792 539,792 538 C 792 538,793 537,794 536 C 795 536,797 534,797 533 C 798 532,799 531,799 531 C 800 531,802 527,802 525 C 802 524,802 523,803 523 C 803 522,804 521,804 519 C 804 518,804 516,804 516 C 805 516,805 514,805 513 C 805 512,805 510,806 510 C 806 510,807 507,807 504 C 807 500,807 497,807 497 C 808 497,808 487,808 472 C 808 459,809 448,809 448 C 809 447,810 448,810 448 C 810 449,813 450,817 450 C 821 450,825 451,825 452 C 825 452,826 453,827 453 C 830 453,830 455,827 462 C 826 463,826 464,826 465 C 826 467,824 470,823 473 C 822 474,822 476,822 477 C 822 479,821 480,820 480 C 820 480,820 480,820 481 C 820 482,820 483,819 483 C 819 483,819 485,819 486 C 819 487,818 489,818 489 C 816 489,816 508,817 509 C 818 510,824 506,824 505 C 824 505,825 505,826 505 C 827 505,828 504,828 503 C 828 501,832 498,835 498 C 836 498,838 497,838 496 C 839 495,840 495,841 496 C 841 497,843 498,844 498 C 851 498,854 501,852 505 C 851 508,847 510,836 516 C 822 522,813 529,813 532 C 813 533,812 534,812 534 C 811 534,811 534,811 534 C 811 535,809 539,808 540 C 807 541,813 547,818 550 C 822 552,828 552,829 551 C 829 550,831 549,833 549 C 835 549,838 548,838 547 C 839 547,842 546,845 546 L 852 545 852 559 C 852 567,851 573,851 573 C 848 573,850 587,852 587 C 853 587,855 587,855 587 C 855 586,855 586,856 586 C 857 586,867 578,867 577 C 867 576,868 575,869 574 C 872 570,880 554,880 553 C 880 552,880 552,880 552 C 881 552,882 549,883 546 C 883 545,884 544,885 542 C 885 540,886 539,886 538 C 886 538,886 537,887 537 C 887 537,888 535,888 534 C 888 533,888 531,888 531 C 889 531,889 530,889 529 C 888 527,895 528,896 529 C 897 530,898 531,900 531 C 901 531,903 532,903 533 C 903 533,904 534,906 534 C 908 534,910 535,910 536 C 910 536,913 537,916 537 C 918 537,921 538,921 539 C 921 539,923 540,927 540 C 930 540,933 539,933 539 C 933 538,935 537,937 537 C 943 536,948 532,947 529 C 947 528,946 527,946 526 C 947 525,934 513,933 513 C 933 513,930 511,927 508 C 919 501,917 499,913 498 C 911 497,911 496,913 495 C 914 494,916 491,917 488 C 917 487,918 486,919 486 C 920 486,921 485,921 484 C 921 481,923 481,929 484 C 933 485,936 487,936 488 C 936 488,936 489,937 489 C 937 489,939 489,940 491 C 943 493,964 493,965 491 C 966 490,967 490,968 489 C 970 488,971 484,970 483 C 969 482,968 480,967 478 C 964 473,960 468,958 468 C 958 468,956 466,955 465 C 954 464,952 463,952 463 C 951 463,950 462,949 461 C 948 459,947 459,946 459 C 945 459,944 458,944 457 C 944 456,943 456,942 456 C 941 456,940 454,939 453 C 937 452,936 451,935 451 C 934 451,933 450,933 449 C 933 448,932 448,931 448 C 930 448,929 447,928 446 C 927 444,926 444,925 444 C 922 444,919 437,922 435 C 928 430,924 429,907 429 C 900 429,895 428,895 428 C 895 427,890 427,885 427 C 867 427,859 426,860 423 C 861 420,864 418,870 417 C 873 417,876 416,877 415 C 878 415,881 414,885 414 C 888 414,891 413,892 413 C 893 412,896 411,900 411 C 903 411,906 410,907 410 C 908 409,911 408,914 408 C 918 408,921 407,921 406 C 921 406,922 406,924 406 C 930 406,935 401,933 398 C 933 397,931 396,931 396 C 930 396,930 395,930 395 C 930 394,927 393,925 393 C 923 393,921 392,921 392 C 921 391,917 391,913 390 C 903 390,903 389,903 373 L 903 361 899 357 C 898 355,896 354,895 354 C 894 354,894 353,893 352 C 893 350,886 351,886 353 C 886 354,886 355,886 355 C 885 355,885 356,885 359 C 885 361,884 364,884 364 C 883 364,883 367,883 369 C 883 371,883 374,882 374 C 882 375,882 377,882 379 C 882 381,881 384,881 384 C 880 384,880 386,880 388 L 880 391 873 390 C 870 390,866 389,865 389 C 863 387,863 379,864 379 C 865 379,865 374,865 369 C 865 363,865 358,864 358 C 864 358,864 357,864 356 C 864 355,861 352,859 349 L 854 345 856 342 C 858 340,859 339,867 339 C 872 338,876 338,876 337 C 876 337,877 337,879 337 C 881 337,884 336,885 335 C 886 334,888 334,889 334 C 890 333,900 324,900 323 C 900 322,900 322,900 322 C 905 322,899 313,894 312 C 892 312,891 311,890 310 C 890 310,885 309,880 309 C 874 309,870 308,870 307 C 870 307,868 307,867 307 C 863 307,861 304,861 299 C 861 296,860 295,860 295 C 859 295,859 292,859 290 C 860 281,854 274,845 273 L 840 272 840 278 M 1090 279 C 1086 279,1082 280,1081 280 C 1080 281,1075 282,1069 282 C 1062 282,1057 283,1056 284 C 1055 284,1052 285,1049 285 L 1043 285 1047 287 C 1051 289,1058 296,1057 297 C 1057 298,1057 299,1058 299 C 1058 299,1059 304,1059 309 L 1059 318 1066 318 C 1071 318,1074 317,1075 316 C 1076 316,1080 315,1086 315 C 1091 315,1095 314,1096 313 C 1097 313,1103 312,1111 312 C 1118 311,1125 311,1125 310 C 1125 309,1146 309,1147 310 C 1147 311,1154 312,1162 312 C 1170 312,1176 313,1177 313 C 1178 314,1182 315,1186 315 C 1190 315,1194 316,1195 317 C 1196 317,1201 318,1207 318 L 1217 318 1217 314 C 1217 311,1217 310,1217 310 C 1216 310,1216 308,1216 306 C 1216 305,1216 303,1215 303 C 1215 303,1215 300,1215 297 C 1215 292,1212 285,1210 285 C 1209 285,1208 284,1208 283 C 1208 283,1205 282,1201 282 C 1197 281,1194 281,1193 280 C 1192 280,1103 278,1090 279 M 1066 348 C 1063 349,1060 353,1060 354 C 1060 354,1060 355,1060 355 C 1059 355,1059 357,1059 359 L 1059 364 1072 363 C 1079 363,1085 362,1086 361 C 1086 361,1092 360,1100 360 C 1107 360,1114 359,1114 359 C 1114 358,1121 357,1129 357 C 1137 357,1144 356,1144 355 C 1144 355,1147 354,1150 354 C 1154 354,1154 354,1152 354 C 1150 354,1148 353,1147 353 C 1146 352,1137 351,1126 351 C 1115 351,1106 350,1105 350 C 1104 349,1068 347,1066 348 M 1167 381 C 1165 381,1163 382,1162 382 C 1161 383,1159 384,1156 384 C 1154 384,1152 385,1152 386 C 1152 386,1149 387,1147 387 C 1145 387,1143 388,1143 389 C 1143 389,1141 390,1140 390 C 1136 391,1119 399,1118 401 C 1118 402,1117 403,1116 403 C 1113 403,1105 412,1105 417 C 1105 426,1108 427,1122 426 C 1128 426,1134 425,1135 425 C 1135 424,1140 423,1144 423 C 1148 423,1152 422,1153 422 C 1154 421,1157 420,1162 420 C 1166 420,1170 419,1170 419 C 1170 418,1174 417,1179 417 C 1183 417,1188 416,1188 415 C 1188 415,1189 414,1192 414 C 1199 414,1201 413,1201 410 C 1201 408,1201 406,1200 406 C 1200 406,1200 401,1200 395 C 1200 389,1199 385,1199 385 C 1198 385,1198 384,1198 383 C 1198 381,1179 380,1167 381 M 1086 385 C 1086 386,1080 387,1074 387 C 1067 387,1062 388,1062 389 C 1062 389,1061 390,1060 390 C 1058 390,1058 393,1057 434 L 1057 474 1067 474 C 1073 473,1077 473,1078 472 C 1079 472,1085 471,1091 471 C 1098 471,1104 470,1104 470 C 1104 469,1108 468,1114 468 C 1127 467,1128 467,1128 461 C 1128 453,1126 453,1110 453 C 1103 453,1096 452,1096 452 C 1096 451,1093 451,1091 450 C 1086 450,1080 447,1080 445 C 1080 445,1079 445,1078 445 C 1077 445,1076 443,1075 442 C 1074 440,1073 439,1072 438 C 1072 438,1072 437,1072 437 C 1072 436,1072 435,1072 435 C 1071 435,1071 433,1071 431 C 1071 428,1071 426,1072 426 C 1072 426,1072 425,1072 424 C 1071 423,1072 422,1077 412 C 1079 407,1081 403,1082 402 C 1083 401,1083 400,1084 400 C 1084 400,1085 398,1086 397 C 1087 394,1089 391,1090 390 C 1093 387,1093 385,1089 385 C 1087 385,1086 385,1086 385 M 745 409 C 743 412,743 421,745 424 C 746 425,748 426,757 425 L 769 425 769 419 C 769 415,769 412,770 412 C 770 412,771 411,771 409 C 771 407,748 406,745 409 M 808 418 C 808 420,808 422,809 422 C 809 422,810 425,810 427 L 810 432 817 432 C 822 432,826 431,826 431 C 826 430,828 430,831 430 C 836 430,838 428,840 424 C 842 420,841 420,834 420 C 830 420,826 419,826 419 C 825 418,809 417,808 418 M 1198 433 C 1198 434,1196 435,1194 435 C 1191 435,1189 436,1189 436 C 1189 437,1187 438,1185 438 C 1183 438,1180 439,1179 440 C 1178 441,1176 442,1175 442 C 1174 442,1173 442,1173 443 C 1173 443,1171 444,1170 445 C 1169 445,1168 446,1168 446 C 1168 447,1168 448,1168 448 C 1166 448,1166 453,1168 454 C 1168 454,1169 455,1168 456 C 1168 459,1170 463,1171 463 C 1172 463,1172 463,1173 463 C 1173 466,1206 466,1206 464 C 1206 463,1205 461,1205 461 C 1204 461,1204 459,1204 457 C 1204 456,1204 454,1203 454 C 1203 454,1203 452,1203 450 C 1203 448,1202 446,1202 446 C 1201 446,1201 444,1201 443 C 1201 441,1201 440,1200 439 C 1200 438,1200 437,1199 435 C 1199 433,1199 432,1198 433 M 748 450 C 745 453,746 462,750 462 C 752 463,753 463,754 463 C 755 464,757 465,760 465 C 763 465,766 466,766 467 C 769 469,768 454,765 451 C 762 447,751 446,748 450 M 852 457 C 847 467,844 473,844 474 C 844 475,844 476,843 477 C 842 479,844 480,849 480 C 851 480,853 481,853 482 C 856 484,857 480,857 469 C 857 463,858 459,858 458 C 860 457,859 453,857 452 C 855 451,855 451,852 457 M 873 452 C 871 453,871 454,873 454 C 875 454,876 454,876 454 C 876 455,876 455,878 456 C 880 457,883 462,883 465 C 883 466,883 467,884 467 C 884 467,885 469,885 471 C 885 473,885 475,886 475 C 886 475,886 476,886 477 C 886 478,887 481,889 484 C 889 484,890 486,891 487 C 891 489,892 489,893 489 C 894 489,899 480,899 477 C 899 476,901 473,902 471 L 904 467 900 463 C 898 460,895 459,895 459 C 894 459,894 458,894 458 C 894 456,885 453,883 453 C 882 453,880 452,880 452 C 879 450,875 450,873 452 M 1407 588 C 1397 588,1389 589,1389 589 C 1389 590,1375 591,1359 591 C 1342 591,1329 592,1329 592 C 1329 593,1316 594,1300 594 C 1284 594,1272 595,1272 595 C 1272 596,1257 597,1240 597 C 1222 597,1208 598,1207 599 C 1206 599,1192 600,1174 600 C 1156 600,1142 601,1141 602 C 1140 602,1122 603,1100 603 C 1072 604,1059 604,1058 605 C 1057 606,529 606,528 605 C 526 603,427 603,423 605 C 417 608,416 613,422 619 C 424 621,446 621,447 620 C 447 619,467 618,495 618 C 521 618,542 617,543 616 C 543 616,571 615,606 615 C 646 614,668 614,669 613 C 669 613,734 612,870 612 C 980 611,1071 611,1071 611 C 1071 610,1107 609,1152 609 C 1196 609,1233 608,1234 608 C 1235 607,1255 606,1281 606 C 1306 606,1326 605,1327 605 C 1328 604,1341 603,1356 603 C 1372 603,1385 602,1385 602 C 1386 601,1390 601,1395 600 C 1400 600,1404 599,1405 599 C 1406 597,1410 597,1411 599 C 1411 599,1413 600,1414 600 C 1415 600,1421 602,1426 604 C 1432 607,1437 609,1438 609 C 1439 609,1440 610,1440 611 C 1440 611,1442 612,1444 612 C 1446 612,1449 611,1449 611 C 1449 610,1449 610,1450 610 C 1454 610,1459 601,1459 594 C 1459 587,1464 587,1407 588 M 1173 635 C 1173 637,1172 639,1172 639 C 1171 639,1171 639,1171 639 C 1171 641,1169 645,1168 645 C 1168 645,1167 645,1168 645 C 1168 645,1167 648,1164 651 C 1162 653,1161 656,1161 656 C 1161 656,1159 659,1157 661 C 1155 664,1153 666,1153 666 C 1152 669,1151 672,1150 672 C 1150 672,1150 672,1150 673 C 1150 674,1149 676,1147 678 C 1145 679,1144 681,1144 682 C 1144 684,1142 684,1141 682 C 1140 681,1139 681,1138 681 C 1137 681,1136 680,1136 679 C 1136 678,1135 678,1134 678 C 1133 678,1132 676,1130 675 C 1128 673,1127 672,1126 672 C 1126 672,1124 669,1121 667 C 1119 665,1117 663,1116 663 C 1115 663,1110 657,1110 656 C 1110 655,1109 654,1108 654 C 1106 652,1105 649,1105 646 C 1105 644,1105 641,1104 641 C 1103 639,1095 639,1095 641 C 1095 641,1089 642,1080 642 C 1070 642,1065 641,1065 641 C 1065 640,1061 640,1057 640 C 1053 640,1050 640,1050 641 C 1050 641,1049 642,1048 642 C 1047 642,1046 642,1046 643 C 1044 645,1041 645,1041 644 C 1041 641,1032 642,1029 644 C 1027 647,1027 651,1030 651 C 1030 651,1032 653,1035 655 C 1037 656,1039 658,1039 658 C 1040 658,1041 658,1041 658 C 1041 659,1041 660,1042 660 C 1045 661,1047 662,1053 667 C 1056 670,1059 672,1059 672 C 1059 672,1062 674,1065 676 C 1068 678,1071 681,1071 681 C 1071 681,1074 683,1077 685 C 1080 687,1083 690,1083 690 C 1084 690,1085 690,1085 691 C 1086 692,1089 694,1092 695 C 1093 696,1095 697,1095 697 C 1095 698,1095 699,1096 699 C 1100 700,1104 703,1104 703 C 1104 704,1105 705,1107 705 C 1108 705,1110 706,1110 707 C 1110 707,1111 708,1113 708 C 1114 708,1116 709,1116 710 C 1116 710,1116 711,1117 711 C 1118 711,1125 717,1125 718 C 1125 719,1123 721,1122 724 C 1120 726,1119 728,1119 729 C 1119 730,1118 731,1118 731 C 1117 731,1117 732,1117 732 C 1117 733,1117 734,1116 735 C 1116 736,1115 737,1115 738 C 1114 739,1114 740,1114 741 C 1114 741,1114 743,1113 745 C 1111 746,1111 748,1111 748 C 1111 749,1111 750,1110 751 C 1110 752,1109 753,1109 754 C 1108 755,1108 756,1108 757 C 1108 757,1108 758,1107 759 C 1107 760,1106 761,1106 762 C 1105 763,1105 764,1105 765 C 1105 765,1105 767,1103 769 C 1102 770,1102 772,1102 774 C 1103 775,1102 776,1101 776 C 1099 777,1099 777,1099 778 C 1099 779,1098 780,1097 782 C 1096 783,1095 785,1095 786 C 1095 787,1093 790,1092 793 C 1091 795,1090 798,1090 798 C 1090 798,1090 800,1089 801 C 1087 803,1087 805,1087 805 C 1087 805,1087 806,1086 808 C 1084 809,1084 811,1084 811 C 1084 811,1084 812,1083 813 C 1082 815,1081 816,1081 817 C 1081 817,1079 820,1076 823 C 1070 830,1070 831,1072 831 C 1078 831,1087 824,1101 810 C 1109 802,1116 796,1117 795 C 1118 795,1121 793,1124 791 C 1126 788,1129 787,1129 787 C 1131 787,1143 774,1143 773 C 1143 771,1180 734,1183 733 C 1185 732,1208 711,1209 709 C 1210 706,1212 702,1213 702 C 1215 701,1217 696,1216 696 C 1216 695,1216 694,1216 694 C 1217 694,1218 692,1218 691 C 1218 689,1218 687,1218 687 C 1219 687,1219 685,1219 683 C 1219 681,1219 679,1220 679 C 1220 679,1221 677,1221 676 C 1221 674,1221 672,1221 672 C 1222 672,1222 671,1222 670 C 1222 669,1222 669,1222 669 C 1223 669,1224 668,1224 666 C 1224 665,1225 662,1226 660 C 1230 653,1229 646,1223 645 C 1222 645,1221 644,1221 644 C 1221 643,1219 642,1217 642 C 1215 642,1214 641,1213 641 C 1212 640,1211 639,1209 639 C 1207 639,1206 638,1206 637 C 1206 637,1203 636,1201 636 C 1198 636,1195 635,1195 634 C 1194 634,1190 633,1186 633 C 1182 633,1179 632,1179 632 C 1178 628,1173 631,1173 635 M 680 633 C 672 633,665 634,664 634 C 663 635,650 636,635 636 C 619 636,608 637,607 638 C 606 639,564 639,564 638 C 564 637,561 637,558 637 C 552 637,548 640,550 643 C 550 644,550 645,550 645 C 548 646,548 651,549 651 C 550 651,550 656,549 657 C 549 658,548 659,549 659 C 549 659,550 660,552 661 C 553 662,555 663,555 664 C 555 665,555 666,555 666 C 556 666,556 667,556 669 C 556 673,558 678,561 678 C 562 678,563 678,563 679 C 563 680,565 681,567 681 C 569 681,571 682,571 683 C 572 684,582 684,583 683 C 584 682,590 682,598 681 C 607 681,612 680,613 680 C 615 678,620 682,619 685 C 619 686,619 687,620 687 C 620 687,621 690,621 694 C 621 697,621 700,621 700 C 622 700,622 702,622 703 C 622 705,622 707,623 707 C 623 707,624 709,624 711 C 624 713,624 715,624 715 C 625 715,625 716,625 717 C 625 719,626 722,628 725 C 628 726,628 727,628 728 C 628 728,628 730,628 731 C 630 734,631 737,631 738 C 631 739,631 740,632 741 C 633 744,634 746,634 747 C 634 748,634 749,635 750 C 636 754,637 755,637 757 C 637 758,637 759,639 763 C 640 764,640 765,640 766 C 640 767,641 769,642 772 C 643 773,643 774,643 775 C 643 776,643 777,645 781 C 646 782,646 783,646 784 C 646 784,646 785,647 785 C 647 785,648 787,648 788 C 648 789,648 791,648 791 C 649 791,649 794,649 797 C 648 805,650 805,657 798 C 661 793,662 791,662 789 C 662 787,663 785,663 785 C 664 785,664 783,664 781 C 664 779,664 776,665 776 C 666 773,667 770,667 768 C 667 767,667 766,668 766 C 668 766,669 764,669 762 C 669 761,669 759,670 759 C 670 759,670 758,670 757 C 670 757,670 755,672 753 C 673 752,673 751,673 751 C 672 751,673 750,673 749 C 674 749,675 746,675 744 C 675 742,675 740,676 740 C 677 739,678 737,678 735 C 678 734,678 732,678 732 C 679 732,679 730,679 729 C 679 727,679 725,680 725 C 680 725,681 715,681 703 C 681 690,681 680,681 680 C 682 680,682 677,682 675 C 682 673,682 670,683 670 C 683 669,684 668,684 666 C 684 664,684 662,685 662 C 685 661,686 661,685 661 C 685 661,685 660,686 659 C 687 657,689 657,690 657 C 691 657,693 656,693 656 C 693 655,694 654,696 654 C 698 654,700 653,701 652 C 702 651,704 651,705 651 C 706 651,708 650,708 650 C 708 649,710 648,712 648 C 714 648,717 647,717 646 C 717 646,719 645,721 645 C 723 645,726 644,726 643 C 726 643,728 642,730 642 C 733 642,735 641,736 640 C 737 640,739 639,742 639 C 745 639,747 638,748 637 C 749 637,750 636,752 636 C 766 633,739 632,680 633 M 430 636 C 430 637,430 645,431 645 C 431 645,432 647,432 648 C 432 649,432 651,433 651 C 434 651,435 652,435 653 C 435 654,435 655,436 656 C 437 656,438 658,438 660 C 438 662,438 663,438 664 C 439 665,439 679,438 680 C 437 681,437 705,438 705 C 439 705,439 707,439 710 C 439 713,439 716,440 716 C 440 716,441 725,441 738 C 441 750,441 760,441 760 C 442 760,442 762,442 763 C 442 765,442 766,443 767 C 443 768,444 771,446 774 C 449 782,458 790,468 795 C 472 797,477 800,478 800 C 481 803,498 801,501 797 C 502 794,503 777,501 776 C 501 776,501 774,501 772 C 501 770,500 768,499 768 C 499 768,499 767,499 766 C 500 765,499 763,496 758 C 496 757,496 756,497 755 C 498 754,498 751,498 747 C 497 741,498 739,500 734 C 502 730,504 727,504 724 C 504 722,504 720,504 720 C 505 720,505 717,505 714 C 505 712,505 709,506 709 C 506 708,507 707,507 705 C 507 703,507 701,507 701 C 508 701,508 699,508 697 C 508 696,508 694,509 694 C 509 694,510 691,510 689 C 510 687,510 684,510 684 C 511 684,511 681,511 679 C 511 676,512 673,512 672 C 512 671,513 669,513 669 C 513 668,515 667,517 666 C 520 665,520 664,518 662 C 516 661,516 660,516 659 C 516 657,502 651,499 651 C 498 651,498 650,498 650 C 498 649,496 648,494 648 C 492 648,490 647,490 646 C 490 646,486 645,481 645 C 476 645,472 644,472 643 C 471 642,465 642,465 644 C 465 644,463 645,462 645 C 460 645,459 644,459 644 C 459 643,456 642,453 642 C 449 642,447 641,447 640 C 447 640,445 639,442 639 C 440 639,438 638,438 638 C 437 637,431 635,430 636 M 865 636 C 863 636,860 637,859 637 C 858 638,855 639,852 639 C 850 639,847 640,847 640 C 847 641,845 642,843 642 C 840 642,833 646,823 651 C 822 652,820 654,819 655 C 819 656,817 657,817 657 C 815 657,801 671,802 672 C 802 673,802 674,801 675 C 799 676,799 677,799 678 C 799 678,799 679,799 680 C 798 682,796 685,796 687 C 795 690,794 693,793 693 C 793 693,793 693,793 693 C 793 694,793 695,793 695 C 791 696,791 720,792 721 C 793 721,793 722,793 723 C 793 724,794 726,794 727 C 795 730,796 732,795 732 C 795 732,796 733,797 735 C 799 737,799 739,799 739 C 799 739,799 740,801 742 C 802 743,802 745,802 745 C 802 745,803 747,805 749 C 808 752,810 755,810 755 C 810 756,830 777,831 777 C 831 777,833 778,835 779 C 842 785,861 794,866 795 C 868 795,870 796,870 797 C 870 797,873 798,876 798 C 879 798,882 799,882 800 C 883 801,918 801,919 800 C 919 799,922 799,925 798 C 927 798,930 797,931 797 C 931 796,933 795,935 795 C 939 794,945 791,949 788 C 951 787,953 786,953 786 C 953 786,955 785,957 783 C 962 780,966 778,971 777 C 977 776,984 769,987 760 C 988 759,988 757,988 757 C 988 756,988 755,988 755 C 989 755,990 753,990 752 C 990 751,990 749,990 749 C 991 749,991 747,991 745 C 991 744,991 742,992 742 C 992 742,993 739,993 736 C 993 732,993 729,993 729 C 995 728,995 710,993 709 C 993 709,993 707,993 706 C 993 703,986 690,984 690 C 984 690,984 689,984 688 C 984 687,982 686,981 685 C 980 683,979 682,979 682 C 980 681,959 661,958 661 C 957 661,956 660,955 659 C 954 657,953 657,952 657 C 951 657,951 656,951 656 C 951 655,947 652,943 651 C 942 651,942 650,942 649 C 942 649,940 648,939 648 C 937 648,936 647,936 647 C 936 646,934 645,933 645 C 931 645,930 644,930 644 C 930 643,928 642,926 642 C 924 642,923 641,922 640 C 921 640,919 639,916 639 C 913 639,910 638,910 637 C 909 636,871 635,865 636 M 1354 636 C 1353 636,1352 637,1351 638 C 1351 638,1349 639,1348 639 C 1344 639,1336 643,1332 647 C 1330 650,1328 652,1327 652 C 1326 652,1305 672,1306 673 C 1306 673,1305 674,1304 676 C 1303 677,1302 678,1302 679 C 1302 680,1301 681,1300 681 C 1300 681,1299 682,1298 683 C 1297 686,1295 689,1294 690 C 1293 690,1293 690,1294 690 C 1294 690,1294 692,1293 693 C 1291 695,1288 700,1288 702 C 1288 702,1288 704,1287 706 C 1285 707,1285 709,1285 709 C 1285 710,1285 711,1284 712 C 1283 714,1282 717,1282 718 C 1282 718,1281 719,1280 721 C 1279 722,1279 724,1279 724 C 1280 724,1278 725,1277 727 C 1273 730,1272 736,1274 737 C 1275 738,1275 751,1274 752 C 1273 752,1273 754,1273 756 C 1273 757,1273 759,1272 759 C 1272 759,1272 761,1272 763 C 1272 764,1271 766,1270 766 C 1270 766,1269 767,1270 768 C 1270 769,1269 771,1268 773 C 1268 775,1267 776,1267 777 C 1267 777,1267 779,1266 780 C 1265 781,1264 783,1264 785 C 1264 787,1264 789,1263 789 C 1259 793,1266 799,1275 799 C 1278 799,1281 799,1281 800 C 1283 801,1319 801,1321 800 C 1321 799,1324 798,1326 798 C 1333 797,1334 794,1331 787 C 1328 782,1327 768,1330 767 C 1330 767,1330 766,1330 765 C 1330 761,1338 751,1343 750 C 1345 750,1347 749,1349 748 C 1355 745,1359 744,1360 744 C 1361 744,1362 743,1363 743 C 1364 742,1368 740,1372 738 C 1376 737,1380 734,1381 733 C 1384 731,1391 731,1390 733 C 1390 734,1405 764,1407 767 C 1408 768,1408 769,1408 769 C 1408 769,1408 770,1410 772 C 1411 774,1413 776,1413 776 C 1413 776,1414 778,1416 781 C 1417 783,1419 785,1419 785 C 1419 788,1429 798,1433 798 L 1438 799 1437 796 C 1437 794,1435 791,1433 788 C 1431 783,1430 780,1429 778 C 1429 777,1429 776,1428 776 C 1427 771,1426 770,1426 769 C 1426 768,1426 767,1425 766 C 1424 762,1423 761,1423 760 C 1423 759,1423 758,1422 757 C 1420 753,1420 752,1420 749 C 1420 748,1420 746,1419 746 C 1419 746,1419 744,1419 743 C 1419 742,1418 740,1417 740 C 1417 740,1417 738,1417 737 C 1417 736,1417 735,1417 734 C 1415 731,1414 728,1414 727 C 1414 726,1414 725,1414 725 C 1412 724,1412 717,1414 717 C 1416 717,1425 712,1427 709 C 1428 708,1430 708,1430 708 C 1431 708,1437 702,1437 701 C 1437 700,1436 700,1434 701 C 1432 702,1430 702,1428 702 C 1426 702,1424 703,1424 703 C 1423 705,1410 706,1409 704 C 1408 704,1408 702,1408 700 C 1408 697,1408 695,1407 695 C 1407 695,1407 689,1407 684 C 1407 677,1406 672,1405 672 C 1405 672,1405 671,1405 670 C 1406 669,1399 655,1397 654 C 1396 653,1396 652,1396 652 C 1397 650,1386 639,1384 639 C 1383 639,1383 638,1382 638 C 1382 637,1357 635,1354 636 M 893 647 C 892 648,891 649,891 649 C 891 650,889 653,887 656 C 884 659,882 662,882 662 C 882 662,879 665,876 669 C 873 672,869 678,867 681 C 865 686,862 690,854 697 C 845 706,844 708,844 710 C 844 712,844 714,843 715 C 842 716,842 717,843 718 C 844 719,844 722,844 724 C 844 726,845 728,846 730 C 847 731,847 733,847 733 C 846 733,856 743,858 744 C 859 744,861 745,862 745 C 865 747,870 749,873 750 C 875 750,876 751,877 752 C 878 752,882 753,886 753 C 891 753,895 754,895 755 C 896 756,907 756,908 755 C 908 754,911 754,915 753 C 920 753,922 752,928 749 C 928 749,930 748,932 747 C 937 744,939 743,945 738 C 949 735,952 733,952 733 C 954 733,958 727,961 723 C 963 719,964 700,962 698 C 961 698,961 696,961 695 C 961 692,961 691,959 687 C 958 686,958 685,958 684 C 958 682,952 671,950 670 C 949 669,948 667,947 666 C 946 665,945 664,944 663 C 943 662,941 661,940 660 C 939 659,937 657,935 657 C 934 657,933 656,933 656 C 933 655,931 654,930 654 C 928 654,927 653,927 653 C 927 652,925 651,922 651 C 920 651,918 650,917 649 C 917 649,913 648,908 648 C 903 648,900 647,900 646 C 900 645,894 645,893 647 M 1365 684 C 1364 686,1363 687,1363 688 C 1363 689,1361 692,1360 693 C 1359 693,1359 694,1359 695 C 1359 695,1357 697,1356 699 C 1355 701,1354 703,1354 703 C 1355 703,1354 704,1352 705 C 1348 710,1348 713,1352 714 C 1355 715,1362 714,1364 712 C 1365 712,1368 711,1371 711 C 1378 711,1381 709,1379 706 C 1379 705,1378 703,1378 703 C 1378 701,1377 700,1376 696 C 1375 695,1375 694,1375 693 C 1375 691,1373 687,1372 687 C 1371 687,1371 686,1370 684 C 1369 681,1367 681,1365 684"/><path fill="#BE2F3C" fill-rule="evenodd" d="M 1349 205 C 1348 206,1346 207,1345 207 C 1343 207,1332 218,1333 219 C 1334 219,1333 220,1333 220 C 1332 220,1331 221,1331 222 C 1331 223,1330 224,1330 225 C 1330 225,1330 226,1329 227 C 1329 228,1328 230,1327 232 C 1326 233,1326 236,1326 239 C 1326 241,1325 243,1325 243 C 1324 243,1324 246,1324 248 C 1324 250,1324 253,1323 253 C 1322 253,1322 504,1323 505 C 1324 505,1324 506,1324 508 C 1324 509,1324 510,1325 510 C 1325 510,1326 512,1326 513 C 1326 515,1328 521,1330 521 C 1330 521,1331 524,1333 526 C 1334 529,1336 532,1337 534 C 1339 536,1341 539,1342 540 C 1345 545,1356 556,1357 556 C 1357 556,1359 557,1360 558 C 1363 561,1368 565,1369 565 C 1370 565,1371 565,1371 565 C 1371 566,1371 567,1372 567 C 1373 567,1376 569,1378 570 C 1381 571,1384 573,1386 573 C 1388 573,1390 574,1390 575 C 1390 575,1393 576,1397 576 C 1401 576,1404 577,1404 578 C 1404 578,1407 579,1411 579 C 1415 579,1419 578,1419 578 C 1419 577,1419 577,1420 577 C 1423 577,1430 572,1431 571 C 1431 570,1432 568,1432 568 C 1435 563,1436 561,1435 561 C 1435 560,1435 559,1435 559 C 1437 558,1437 522,1436 521 C 1436 521,1435 487,1435 446 C 1435 397,1435 370,1434 370 C 1434 370,1434 363,1434 354 C 1434 346,1433 339,1433 338 C 1433 338,1432 334,1432 330 C 1432 326,1432 322,1431 322 C 1431 322,1431 318,1431 314 C 1431 309,1430 306,1430 305 C 1429 305,1429 302,1429 300 C 1429 298,1429 295,1428 295 C 1428 295,1428 292,1428 288 C 1428 285,1427 283,1427 283 C 1426 283,1426 281,1426 280 C 1426 278,1426 276,1425 276 C 1425 276,1425 274,1425 271 C 1425 269,1424 268,1423 268 C 1423 268,1423 266,1423 265 C 1423 264,1423 262,1423 262 C 1422 262,1422 260,1422 258 C 1422 257,1421 256,1420 256 C 1420 256,1420 255,1420 254 C 1420 253,1420 252,1419 252 C 1419 252,1419 250,1419 249 C 1419 248,1418 247,1418 247 C 1417 247,1417 246,1417 246 C 1417 244,1411 231,1409 229 C 1408 229,1408 228,1408 227 C 1409 226,1393 211,1391 211 C 1391 211,1389 210,1388 209 C 1386 207,1384 207,1383 207 C 1381 207,1379 206,1379 205 C 1377 203,1353 203,1349 205 M 1350 247 C 1350 247,1350 249,1351 250 C 1353 252,1353 257,1352 258 C 1351 258,1351 259,1351 260 C 1351 261,1351 263,1351 263 C 1348 264,1349 292,1352 297 C 1359 312,1372 313,1372 299 C 1372 295,1372 292,1373 292 C 1373 292,1374 290,1374 288 C 1374 287,1374 286,1375 286 C 1375 286,1375 285,1375 284 C 1375 283,1375 282,1376 282 C 1376 282,1377 280,1377 279 L 1377 276 1374 278 C 1373 280,1372 281,1372 281 C 1372 282,1371 283,1369 285 C 1366 289,1362 290,1362 287 C 1362 286,1361 285,1361 284 C 1360 283,1360 275,1361 274 C 1361 274,1362 272,1362 271 C 1362 269,1363 265,1365 262 C 1367 258,1367 256,1366 255 C 1366 255,1365 255,1366 255 C 1368 254,1363 250,1359 249 C 1353 246,1349 245,1350 247 M 1388 252 C 1388 253,1388 254,1389 255 C 1391 256,1393 259,1394 262 C 1395 263,1396 265,1396 265 C 1397 265,1398 266,1398 267 C 1398 269,1398 271,1399 271 C 1399 271,1399 273,1399 274 C 1399 276,1399 277,1400 277 C 1400 277,1400 278,1400 281 L 1400 285 1395 286 C 1390 286,1386 289,1390 289 C 1391 289,1392 289,1392 289 C 1392 290,1393 291,1394 291 C 1397 292,1401 295,1401 296 C 1401 298,1404 301,1407 301 C 1409 301,1413 298,1413 296 C 1413 295,1413 295,1414 295 C 1414 295,1414 294,1414 293 C 1414 292,1414 291,1415 291 C 1416 290,1416 283,1414 283 C 1414 283,1414 282,1414 280 C 1414 279,1414 278,1414 277 C 1413 276,1412 273,1411 271 C 1407 262,1388 247,1388 252 M 1362 322 C 1362 323,1363 323,1364 324 C 1365 325,1366 326,1366 327 C 1366 328,1366 329,1367 329 C 1367 330,1368 334,1368 340 C 1368 346,1368 351,1369 351 C 1370 352,1368 355,1366 355 C 1365 355,1356 364,1355 366 C 1354 368,1354 376,1355 377 C 1355 378,1356 379,1356 380 C 1356 382,1362 388,1365 388 C 1366 388,1368 388,1368 389 C 1368 390,1397 390,1400 388 C 1405 385,1407 381,1403 376 C 1401 374,1401 374,1387 375 C 1369 376,1364 375,1362 372 C 1361 369,1366 363,1369 363 C 1370 363,1371 362,1371 362 C 1371 361,1373 360,1375 360 C 1378 360,1381 359,1381 358 C 1381 358,1384 357,1388 357 C 1392 357,1395 356,1395 355 C 1395 355,1397 354,1400 354 C 1407 353,1409 351,1407 348 C 1405 344,1398 337,1396 337 C 1394 337,1394 338,1396 339 C 1397 340,1384 348,1381 348 C 1379 348,1379 333,1380 332 C 1381 332,1381 329,1380 326 C 1380 325,1378 324,1376 324 C 1374 324,1372 323,1372 322 C 1371 321,1362 321,1362 322 M 1363 405 C 1364 407,1366 409,1367 410 C 1369 412,1369 413,1366 415 L 1364 418 1367 417 C 1369 417,1370 416,1370 415 C 1371 415,1375 414,1380 414 C 1393 414,1397 411,1391 405 C 1389 402,1377 401,1377 404 C 1377 405,1368 405,1367 404 C 1367 403,1366 402,1364 402 L 1361 401 1363 405 M 1377 420 C 1375 420,1374 421,1374 421 C 1374 422,1372 422,1369 423 C 1367 423,1365 424,1365 424 C 1364 426,1355 426,1354 424 C 1352 422,1351 422,1351 425 C 1352 435,1361 441,1366 435 C 1367 434,1369 433,1369 433 C 1370 433,1371 432,1372 431 C 1373 429,1374 429,1375 429 C 1376 429,1377 428,1377 428 C 1377 425,1385 426,1386 429 C 1387 432,1387 442,1386 443 C 1386 443,1386 445,1386 446 C 1386 450,1382 456,1377 461 C 1373 464,1372 465,1368 467 C 1362 470,1362 471,1370 471 C 1374 471,1377 470,1377 470 C 1377 469,1379 468,1381 468 C 1383 468,1386 467,1386 466 C 1386 466,1387 465,1388 465 C 1391 464,1392 463,1397 456 C 1400 453,1401 451,1401 449 C 1401 446,1401 445,1401 444 C 1402 444,1402 442,1402 440 C 1402 437,1402 435,1401 435 C 1401 434,1401 433,1401 432 C 1401 424,1390 418,1377 420 M 1368 483 C 1368 484,1369 486,1370 487 C 1374 490,1372 492,1365 492 C 1355 492,1352 496,1356 505 C 1358 509,1359 510,1358 511 C 1356 513,1347 513,1347 511 C 1347 511,1346 511,1346 511 C 1344 512,1346 522,1348 522 C 1348 522,1349 522,1348 522 C 1347 524,1352 528,1355 528 C 1357 528,1359 527,1359 527 C 1359 526,1364 523,1366 523 C 1367 523,1368 524,1368 525 C 1368 526,1368 528,1369 528 C 1369 528,1369 528,1369 529 C 1369 530,1369 531,1370 531 C 1370 531,1371 533,1371 534 C 1371 535,1371 537,1372 537 C 1372 537,1372 537,1372 537 C 1372 539,1377 550,1380 553 C 1386 558,1392 548,1388 540 C 1387 538,1386 535,1386 534 C 1386 533,1385 531,1384 531 C 1383 530,1381 526,1381 524 C 1381 524,1380 522,1379 521 C 1376 518,1376 513,1378 513 C 1379 513,1380 512,1380 512 C 1380 511,1381 510,1383 510 C 1385 510,1386 509,1387 509 C 1389 507,1394 506,1398 507 C 1403 508,1401 520,1396 520 C 1395 520,1395 520,1395 521 C 1395 521,1392 522,1388 522 C 1380 522,1380 524,1388 525 C 1390 525,1392 526,1392 527 C 1392 527,1395 528,1399 528 C 1403 528,1407 527,1407 527 C 1407 526,1407 526,1408 526 C 1411 526,1416 519,1416 513 C 1416 503,1410 498,1399 498 C 1395 498,1393 496,1393 493 C 1394 491,1387 486,1382 486 C 1379 485,1374 484,1372 483 C 1368 481,1368 481,1368 483 M 1368 495 C 1367 496,1367 501,1369 502 C 1370 504,1374 504,1375 503 C 1375 502,1377 501,1379 501 C 1382 500,1384 498,1381 498 C 1380 498,1380 497,1379 497 C 1379 495,1369 494,1368 495"/></svg>